<svg width="200" height="200" viewBox="0 0 200 200" fill="none" xmlns="http://www.w3.org/2000/svg">
<path d="M91.1437 120.801H95.2368C95.5987 120.801 95.9457 120.657 96.2016 120.401C96.4575 120.145 96.6012 119.798 96.6012 119.436V115.343C96.6012 114.981 96.4575 114.634 96.2016 114.378C95.9457 114.123 95.5987 113.979 95.2368 113.979H91.1437C90.7818 113.979 90.4348 114.123 90.1789 114.378C89.9231 114.634 89.7793 114.981 89.7793 115.343V116.708H88.4149C87.8722 116.708 87.3516 116.923 86.9678 117.307C86.584 117.691 86.3684 118.211 86.3684 118.754V121.483H83.6396V120.801C83.6396 120.439 83.4959 120.092 83.24 119.836C82.9841 119.58 82.6371 119.436 82.2753 119.436H79.5465C79.1846 119.436 78.8376 119.58 78.5817 119.836C78.3259 120.092 78.1821 120.439 78.1821 120.801V123.529C78.1821 123.891 78.3259 124.238 78.5817 124.494C78.8376 124.75 79.1846 124.894 79.5465 124.894H82.2753C82.6371 124.894 82.9841 124.75 83.24 124.494C83.4959 124.238 83.6396 123.891 83.6396 123.529V122.847H86.3684V125.576C86.3684 126.119 86.584 126.639 86.9678 127.023C87.3516 127.407 87.8722 127.623 88.4149 127.623H89.7793V128.987C89.7793 129.349 89.9231 129.696 90.1789 129.952C90.4348 130.208 90.7818 130.351 91.1437 130.351H95.2368C95.5987 130.351 95.9457 130.208 96.2016 129.952C96.4575 129.696 96.6012 129.349 96.6012 128.987V124.894C96.6012 124.532 96.4575 124.185 96.2016 123.929C95.9457 123.673 95.5987 123.529 95.2368 123.529H91.1437C90.7818 123.529 90.4348 123.673 90.1789 123.929C89.9231 124.185 89.7793 124.532 89.7793 124.894V126.258H88.4149C88.234 126.258 88.0605 126.186 87.9326 126.058C87.8046 125.93 87.7328 125.757 87.7328 125.576V118.754C87.7328 118.573 87.8046 118.4 87.9326 118.272C88.0605 118.144 88.234 118.072 88.4149 118.072H89.7793V119.436C89.7793 119.798 89.9231 120.145 90.1789 120.401C90.4348 120.657 90.7818 120.801 91.1437 120.801ZM82.2753 123.529H79.5465V120.801H82.2753V123.529ZM91.1437 124.894H95.2368V128.987H91.1437V124.894ZM91.1437 115.343H95.2368V119.436H91.1437V115.343Z" fill="#973C00"/>
<path d="M100.408 106.056C100.408 106.657 100.169 107.234 99.7445 107.659C99.3196 108.083 98.7433 108.322 98.1425 108.322H75.4862C74.8853 108.322 74.3091 108.083 73.8842 107.659C73.4593 107.234 73.2206 106.657 73.2206 106.056C73.2206 105.456 73.4593 104.879 73.8842 104.454C74.3091 104.03 74.8853 103.791 75.4862 103.791H98.1425C98.7433 103.791 99.3196 104.03 99.7445 104.454C100.169 104.879 100.408 105.456 100.408 106.056ZM111.736 69.8065C111.746 73.5834 110.893 77.3126 109.242 80.7096C107.591 84.1065 105.185 87.0813 102.209 89.407C101.653 89.8335 101.201 90.3816 100.889 91.0094C100.577 91.6372 100.412 92.328 100.408 93.0291V94.7284C100.408 95.9301 99.9307 97.0827 99.0809 97.9324C98.2311 98.7822 97.0786 99.2596 95.8768 99.2596H77.7518C76.5501 99.2596 75.3975 98.7822 74.5478 97.9324C73.698 97.0827 73.2206 95.9301 73.2206 94.7284V93.0291C73.2201 92.3364 73.0608 91.653 72.755 91.0315C72.4491 90.4099 72.0048 89.8668 71.4562 89.4438C68.4877 87.1319 66.084 84.1749 64.4271 80.7968C62.7701 77.4187 61.9034 73.7078 61.8925 69.9453C61.8188 56.4478 72.7278 45.2075 86.2139 44.8846C89.5369 44.8045 92.8423 45.39 95.9356 46.6065C99.0289 47.8231 101.848 49.6461 104.226 51.9683C106.604 54.2906 108.494 57.0651 109.783 60.1286C111.073 63.192 111.737 66.4826 111.736 69.8065ZM107.205 69.8065C107.206 67.0868 106.662 64.3944 105.607 61.8878C104.552 59.3812 103.005 57.1111 101.06 55.2111C99.1136 53.3111 96.8072 51.8195 94.2761 50.8243C91.7451 49.829 89.0405 49.3501 86.3216 49.4159C75.2766 49.6764 66.3642 58.872 66.4237 69.9169C66.4341 72.9942 67.1442 76.0288 68.5003 78.7911C69.8564 81.5534 71.8231 83.9711 74.2514 85.8613C75.343 86.7099 76.226 87.797 76.8327 89.0394C77.4394 90.2818 77.7538 91.6465 77.7518 93.0291V94.7284H95.8768V93.0291C95.88 91.6426 96.1998 90.275 96.8118 89.0309C97.4238 87.7867 98.3119 86.6987 99.4084 85.8499C101.844 83.9463 103.813 81.5114 105.164 78.7309C106.515 75.9504 107.213 72.8979 107.205 69.8065ZM102.643 67.1614C102.055 63.8799 100.476 60.8572 98.1188 58.5002C95.7613 56.1432 92.7382 54.565 89.4566 53.9783C89.1632 53.9288 88.8629 53.9376 88.5729 54.0042C88.2828 54.0708 88.0088 54.1939 87.7663 54.3664C87.5238 54.5389 87.3177 54.7575 87.1597 55.0097C87.0017 55.2618 86.895 55.5426 86.8455 55.8361C86.796 56.1295 86.8048 56.4298 86.8714 56.7198C86.938 57.0099 87.0611 57.2839 87.2336 57.5264C87.4061 57.7689 87.6247 57.975 87.8769 58.133C88.129 58.291 88.4099 58.3977 88.7033 58.4472C93.396 59.2373 97.3778 63.2192 98.1736 67.9204C98.2633 68.448 98.5368 68.9269 98.9458 69.2722C99.3548 69.6174 99.8729 69.8067 100.408 69.8065C100.536 69.8057 100.664 69.7953 100.79 69.7753C101.383 69.6742 101.91 69.3421 102.258 68.8519C102.605 68.3617 102.743 67.7536 102.643 67.1614Z" fill="#973C00"/>
<path d="M179.422 170.578L140.305 131.469C151.642 117.857 157.296 100.398 156.089 82.7245C154.883 65.0506 146.909 48.5223 133.826 36.5779C120.744 24.6335 103.56 18.1926 85.8493 18.5951C68.1388 18.9976 51.2653 26.2125 38.7389 38.7389C26.2125 51.2653 18.9976 68.1388 18.5951 85.8493C18.1926 103.56 24.6335 120.744 36.5779 133.826C48.5223 146.909 65.0506 154.883 82.7245 156.089C100.398 157.296 117.857 151.642 131.469 140.305L170.578 179.422C171.159 180.003 171.848 180.463 172.607 180.777C173.366 181.092 174.179 181.254 175 181.254C175.821 181.254 176.634 181.092 177.393 180.777C178.152 180.463 178.841 180.003 179.422 179.422C180.003 178.841 180.463 178.152 180.777 177.393C181.092 176.634 181.254 175.821 181.254 175C181.254 174.179 181.092 173.366 180.777 172.607C180.463 171.848 180.003 171.159 179.422 170.578ZM31.25 87.5C31.25 76.3748 34.549 65.4995 40.7298 56.2492C46.9107 46.9989 55.6957 39.7892 65.9741 35.5318C76.2524 31.2744 87.5624 30.1604 98.4738 32.3308C109.385 34.5013 119.408 39.8586 127.275 47.7253C135.141 55.592 140.499 65.6148 142.669 76.5262C144.84 87.4376 143.726 98.7476 139.468 109.026C135.211 119.304 128.001 128.089 118.751 134.27C109.501 140.451 98.6252 143.75 87.5 143.75C72.5867 143.733 58.2889 137.802 47.7435 127.257C37.1982 116.711 31.2666 102.413 31.25 87.5Z" fill="#973C00"/>
</svg>
