<svg width="160" height="160" viewBox="0 0 160 160" fill="none" xmlns="http://www.w3.org/2000/svg">
<path d="M72.915 96.6405H76.1895C76.479 96.6405 76.7566 96.5255 76.9613 96.3208C77.166 96.1161 77.281 95.8385 77.281 95.549V92.2745C77.281 91.985 77.166 91.7074 76.9613 91.5027C76.7566 91.298 76.479 91.183 76.1895 91.183H72.915C72.6255 91.183 72.3479 91.298 72.1432 91.5027C71.9385 91.7074 71.8235 91.985 71.8235 92.2745V93.366H70.732C70.2978 93.366 69.8814 93.5385 69.5743 93.8455C69.2673 94.1526 69.0948 94.569 69.0948 95.0033V97.1863H66.9118V96.6405C66.9118 96.351 66.7968 96.0734 66.5921 95.8687C66.3874 95.664 66.1098 95.549 65.8203 95.549H63.6373C63.3478 95.549 63.0702 95.664 62.8655 95.8687C62.6608 96.0734 62.5458 96.351 62.5458 96.6405V98.8235C62.5458 99.113 62.6608 99.3906 62.8655 99.5953C63.0702 99.8 63.3478 99.915 63.6373 99.915H65.8203C66.1098 99.915 66.3874 99.8 66.5921 99.5953C66.7968 99.3906 66.9118 99.113 66.9118 98.8235V98.2778H69.0948V100.461C69.0948 100.895 69.2673 101.311 69.5743 101.618C69.8814 101.926 70.2978 102.098 70.732 102.098H71.8235V103.19C71.8235 103.479 71.9385 103.757 72.1432 103.961C72.3479 104.166 72.6255 104.281 72.915 104.281H76.1895C76.479 104.281 76.7566 104.166 76.9613 103.961C77.166 103.757 77.281 103.479 77.281 103.19V99.915C77.281 99.6255 77.166 99.3479 76.9613 99.1432C76.7566 98.9385 76.479 98.8235 76.1895 98.8235H72.915C72.6255 98.8235 72.3479 98.9385 72.1432 99.1432C71.9385 99.3479 71.8235 99.6255 71.8235 99.915V101.007H70.732C70.5873 101.007 70.4485 100.949 70.3461 100.847C70.2438 100.744 70.1863 100.605 70.1863 100.461V95.0033C70.1863 94.8585 70.2438 94.7197 70.3461 94.6173C70.4485 94.515 70.5873 94.4575 70.732 94.4575H71.8235V95.549C71.8235 95.8385 71.9385 96.1161 72.1432 96.3208C72.3479 96.5255 72.6255 96.6405 72.915 96.6405ZM65.8203 98.8235H63.6373V96.6405H65.8203V98.8235ZM72.915 99.915H76.1895V103.19H72.915V99.915ZM72.915 92.2745H76.1895V95.549H72.915V92.2745Z" fill="#F5F5F4"/>
<path d="M80.3265 84.8452C80.3265 85.3259 80.1355 85.7869 79.7956 86.1268C79.4557 86.4667 78.9947 86.6577 78.514 86.6577H60.389C59.9083 86.6577 59.4472 86.4667 59.1073 86.1268C58.7674 85.7869 58.5765 85.3259 58.5765 84.8452C58.5765 84.3645 58.7674 83.9035 59.1073 83.5636C59.4472 83.2237 59.9083 83.0327 60.389 83.0327H78.514C78.9947 83.0327 79.4557 83.2237 79.7956 83.5636C80.1355 83.9035 80.3265 84.3645 80.3265 84.8452ZM89.389 55.8452C89.3968 58.8667 88.7142 61.8501 87.3933 64.5677C86.0724 67.2852 84.1482 69.6651 81.7674 71.5256C81.3222 71.8668 80.961 72.3053 80.7112 72.8075C80.4615 73.3098 80.3299 73.8624 80.3265 74.4233V75.7827C80.3265 76.7441 79.9445 77.6661 79.2647 78.346C78.5849 79.0258 77.6629 79.4077 76.7015 79.4077H62.2015C61.2401 79.4077 60.318 79.0258 59.6382 78.346C58.9584 77.6661 58.5765 76.7441 58.5765 75.7827V74.4233C58.5761 73.8692 58.4487 73.3224 58.204 72.8252C57.9593 72.328 57.6039 71.8934 57.165 71.555C54.7902 69.7055 52.8672 67.34 51.5417 64.6374C50.2161 61.9349 49.5227 58.9663 49.514 55.9562C49.4551 45.1583 58.1823 36.166 68.9712 35.9077C71.6295 35.8436 74.2739 36.312 76.7485 37.2852C79.2231 38.2585 81.4781 39.7169 83.3806 41.5747C85.2832 43.4325 86.7949 45.6521 87.8267 48.1029C88.8586 50.5536 89.3897 53.1861 89.389 55.8452ZM85.764 55.8452C85.7646 53.6694 85.33 51.5155 84.4856 49.5103C83.6413 47.505 82.4044 45.6889 80.8476 44.1689C79.2909 42.6489 77.4458 41.4556 75.4209 40.6594C73.3961 39.8632 71.2324 39.4801 69.0573 39.5327C60.2213 39.7411 53.0914 47.0976 53.139 55.9336C53.1472 58.3954 53.7153 60.823 54.8002 63.0329C55.8852 65.2428 57.4585 67.1769 59.4012 68.689C60.2744 69.3679 60.9808 70.2376 61.4662 71.2315C61.9515 72.2254 62.2031 73.3172 62.2015 74.4233V75.7827H76.7015V74.4233C76.704 73.3141 76.9598 72.22 77.4494 71.2247C77.9391 70.2294 78.6495 69.359 79.5267 68.68C81.4754 67.1571 83.0503 65.2091 84.1313 62.9847C85.2123 60.7603 85.7707 58.3183 85.764 55.8452ZM82.114 53.7291C81.6441 51.1039 80.381 48.6857 78.495 46.8001C76.609 44.9145 74.1906 43.652 71.5653 43.1826C71.3305 43.1431 71.0903 43.1501 70.8583 43.2034C70.6263 43.2567 70.407 43.3551 70.213 43.4931C70.0191 43.6311 69.8542 43.806 69.7278 44.0077C69.6014 44.2095 69.516 44.4341 69.4764 44.6689C69.4368 44.9036 69.4439 45.1439 69.4971 45.3759C69.5504 45.6079 69.6489 45.8272 69.7869 46.0211C69.9249 46.2151 70.0998 46.38 70.3015 46.5064C70.5032 46.6328 70.7279 46.7182 70.9626 46.7578C74.7168 47.3899 77.9023 50.5754 78.5389 54.3363C78.6106 54.7584 78.8295 55.1415 79.1567 55.4177C79.4839 55.6939 79.8983 55.8454 80.3265 55.8452C80.4289 55.8446 80.5311 55.8363 80.6323 55.8203C81.1061 55.7394 81.5283 55.4737 81.8062 55.0815C82.0841 54.6894 82.1948 54.2029 82.114 53.7291Z" fill="#F5F5F4"/>
<path d="M143.538 136.463L112.244 105.175C121.314 94.2857 125.837 80.3187 124.872 66.1796C123.906 52.0405 117.527 38.8179 107.061 29.2623C96.5949 19.7068 82.8478 14.5541 68.6794 14.8761C54.5111 15.1981 41.0123 20.97 30.9912 30.9911C20.97 41.0123 15.1981 54.5111 14.8761 68.6794C14.5541 82.8478 19.7068 96.5949 29.2623 107.061C38.8179 117.527 52.0405 123.906 66.1796 124.871C80.3187 125.837 94.2857 121.314 105.175 112.244L136.463 143.538C136.927 144.002 137.479 144.371 138.086 144.622C138.693 144.873 139.343 145.003 140 145.003C140.657 145.003 141.308 144.873 141.915 144.622C142.521 144.371 143.073 144.002 143.538 143.538C144.002 143.073 144.371 142.521 144.622 141.915C144.873 141.308 145.003 140.657 145.003 140C145.003 139.343 144.873 138.693 144.622 138.086C144.371 137.479 144.002 136.927 143.538 136.463ZM25 70C25 61.0999 27.6392 52.3996 32.5839 44.9993C37.5286 37.5991 44.5566 31.8314 52.7793 28.4254C61.0019 25.0195 70.0499 24.1283 78.7791 25.8647C87.5082 27.601 95.5265 31.8868 101.82 38.1802C108.113 44.4736 112.399 52.4918 114.135 61.2209C115.872 69.9501 114.981 78.9981 111.575 87.2208C108.169 95.4434 102.401 102.471 95.0007 107.416C87.6005 112.361 78.9002 115 70 115C58.0693 114.987 46.6311 110.241 38.1948 101.805C29.7586 93.3689 25.0133 81.9307 25 70Z" fill="#F5F5F4"/>
</svg>
